<svg width="20" height="20" viewBox="0 0 20 20" fill="none" xmlns="http://www.w3.org/2000/svg">
<path d="M5 0C3.67392 0 2.40215 0.526784 1.46447 1.46447C0.526784 2.40215 0 3.67392 0 5C0 6.32608 0.526784 7.59785 1.46447 8.53553C2.40215 9.47322 3.67392 10 5 10C3.67392 10 2.40215 10.5268 1.46447 11.4645C0.526784 12.4021 0 13.6739 0 15C0 16.3261 0.526784 17.5979 1.46447 18.5355C2.40215 19.4732 3.67392 20 5 20C6.32608 20 7.59785 19.4732 8.53553 18.5355C9.47322 17.5979 10 16.3261 10 15C9.99804 14.8859 9.99218 14.7719 9.98242 14.6582C9.98828 14.6589 9.99414 14.6595 10 14.6602C10.0039 14.6602 10.0078 14.6602 10.0117 14.6602C10.0039 14.7734 10.0001 14.8866 10 15C10 16.3261 10.5265 17.5981 11.4642 18.5357C12.4019 19.4734 13.6736 20.0002 14.9997 20.0002C16.3258 20.0002 17.5976 19.4734 18.5353 18.5357C19.4729 17.5981 19.9997 16.3263 19.9997 15.0002C19.9997 13.6741 19.4729 12.4023 18.5353 11.4647C17.5976 10.527 16.3258 10.0002 14.9997 10.0002C14.9939 10.0009 14.988 10.0015 14.9821 10.0022V10.0002C14.988 10.0002 14.9939 10.0002 14.9997 10.0002C16.3258 10.0002 17.5976 9.47342 18.5353 8.53573C19.4729 7.59805 19.9997 6.32628 19.9997 5.0002C19.9997 3.67412 19.4729 2.40235 18.5353 1.46467C17.5976 0.526984 16.3258 0.000199795 14.9997 0.000199795C13.7325 0.000235337 12.5125 0.48145 11.5865 1.34655C10.6605 2.21165 10.0975 3.39609 10.0114 4.6604C10.0075 4.6604 10.0036 4.6604 9.9997 4.6604C9.99384 4.66039 9.98798 4.66039 9.98212 4.6604C9.89602 3.39721 9.33392 2.21373 8.40925 1.34883C7.48459 0.483927 6.26612 0.00162744 5 0ZM14.9902 2.9746C15.3251 2.97127 15.6555 3.05209 15.9511 3.20967C16.2467 3.36724 16.4979 3.59651 16.6818 3.87645C16.8657 4.15639 16.9764 4.47803 17.0037 4.81186C17.0309 5.14569 16.9739 5.48103 16.8379 5.7871C16.2519 7.1541 15.7449 8.5431 14.7339 9.7991C13.7239 11.0541 11.9919 12.0001 9.9999 12.0001C8.8045 12.0001 8.8168 12.0538 8.494 12.4337C8.17129 12.8135 7.63721 13.9598 6.8319 15.8009C6.73155 16.0486 6.58258 16.2737 6.39378 16.4628C6.20498 16.652 5.98019 16.8014 5.73268 16.9023C5.48517 17.0031 5.21996 17.0533 4.95272 17.0499C4.68548 17.0465 4.42163 16.9896 4.17675 16.8825C3.93187 16.7755 3.71094 16.6204 3.52699 16.4265C3.34304 16.2327 3.19982 16.0039 3.10577 15.7537C3.01173 15.5035 2.96877 15.2371 2.97944 14.97C2.99012 14.703 3.0542 14.4408 3.1679 14.1989C3.9501 12.4109 4.4149 11.0569 5.4449 9.84389C6.4759 8.63089 8.1949 7.99989 9.9999 7.99989C11.008 7.99989 11.1781 7.83879 11.619 7.29091C12.06 6.74303 12.5535 5.63261 13.162 4.21281C13.3115 3.84976 13.5646 3.53874 13.8896 3.31852C14.2147 3.09831 14.5976 2.97882 14.9902 2.9746ZM5.0002 3C5.53063 3 6.03934 3.21071 6.41441 3.58579C6.78949 3.96086 7.0002 4.46957 7.0002 5C7.0002 5.53043 6.78949 6.03914 6.41441 6.41421C6.03934 6.78929 5.53063 7 5.0002 7C4.46977 7 3.96106 6.78929 3.58599 6.41421C3.21091 6.03914 3.0002 5.53043 3.0002 5C3.0002 4.46957 3.21091 3.96086 3.58599 3.58579C3.96106 3.21071 4.46977 3 5.0002 3ZM15.0002 13C15.5306 13 16.0393 13.2107 16.4144 13.5858C16.7895 13.9609 17.0002 14.4696 17.0002 15C17.0002 15.5304 16.7895 16.0391 16.4144 16.4142C16.0393 16.7893 15.5306 17 15.0002 17C14.4698 17 13.9611 16.7893 13.586 16.4142C13.2109 16.0391 13.0002 15.5304 13.0002 15C13.0002 14.4696 13.2109 13.9609 13.586 13.5858C13.9611 13.2107 14.4698 13 15.0002 13Z" fill="#F8F0F2"/>
</svg>
